<svg xmlns="http://www.w3.org/2000/svg" viewBox="0 0 1600 900" role="img" aria-label="Elite Account">
  <defs>
    <linearGradient id="bg" x1="0" y1="0" x2="1" y2="1">
      <stop offset="0" stop-color="#060d19" />
      <stop offset="1" stop-color="#10192d" />
    </linearGradient>
    <linearGradient id="shield" x1="0" y1="0" x2="1" y2="1">
      <stop offset="0" stop-color="#76a8ff" />
      <stop offset="1" stop-color="#4f7cff" />
    </linearGradient>
  </defs>
  <rect width="1600" height="900" fill="url(#bg)" />
  <path d="M1090 140 1320 230 1280 530C1240 660 1150 730 1040 790 930 730 840 660 800 530L760 230Z" fill="url(#shield)" opacity="0.9" />
  <path d="M1040 250 1185 307 1160 500C1132 581 1080 633 1040 658 1000 633 948 581 920 500L895 307Z" fill="#06101f" opacity="0.78" />
  <path d="M980 444h120M1040 384v120" stroke="#55e6d1" stroke-width="18" stroke-linecap="round" />
  <text x="130" y="250" fill="#76a8ff" font-size="54" font-family="Arial, sans-serif" letter-spacing="14">ELITE</text>
  <text x="130" y="350" fill="#ffffff" font-size="120" font-family="Arial, sans-serif" font-weight="700">ACCOUNT</text>
  <text x="130" y="440" fill="#9eb4d7" font-size="36" font-family="Arial, sans-serif">Premium shield theme for account and access products</text>
</svg>

